<svg width="21" height="20" viewBox="0 0 21 20" fill="none" xmlns="http://www.w3.org/2000/svg">
<path d="M11.5726 10.0002L19.6762 1.89654C20.1108 1.46322 20.1108 0.759542 19.6762 0.324989C19.2429 -0.10833 18.5392 -0.10833 18.1047 0.324989L10.0011 8.4286L1.89746 0.326223C1.46415 -0.107096 0.760467 -0.107096 0.325915 0.326223C-0.108638 0.759541 -0.108638 1.46322 0.325915 1.89777L8.42953 10.0002L0.327149 18.1038C-0.107404 18.5371 -0.107404 19.2408 0.327149 19.6753C0.543191 19.8914 0.828366 20 1.11231 20C1.39625 20 1.68142 19.8914 1.89747 19.6741L10.0011 11.5717L18.1047 19.6753C18.3207 19.8914 18.6059 20 18.8899 20C19.1738 20 19.459 19.8914 19.675 19.6741C20.1096 19.2408 20.1096 18.5371 19.675 18.1025L11.5726 10.0002Z" fill="#fff"/>
</svg>
